<svg width="50" height="51" viewBox="0 0 50 51" fill="none" xmlns="http://www.w3.org/2000/svg">
<g id="sports_esports_black_24dp 1" clip-path="url(#clip0_55_1111)">
<g id="Group">
<g id="Group_2">
<path id="Vector" d="M44.9557 34.0209L42.685 18.0625C42.1017 13.9584 38.5811 10.9167 34.4355 10.9167H15.5615C11.4159 10.9167 7.8953 13.9584 7.312 18.0625L5.04129 34.0209C4.58298 37.2292 7.06201 40.0834 10.291 40.0834C11.7076 40.0834 13.0408 39.5209 14.0408 38.5209L18.7488 33.8334H31.2481L35.9354 38.5209C36.9353 39.5209 38.2894 40.0834 39.6852 40.0834C42.935 40.0834 45.414 37.2292 44.9557 34.0209ZM22.9153 23.4167H18.7488V27.5834H16.6656V23.4167H12.4992V21.3334H16.6656V17.1667H18.7488V21.3334H22.9153V23.4167ZM31.2481 21.3334C30.1024 21.3334 29.1649 20.3959 29.1649 19.25C29.1649 18.1042 30.1024 17.1667 31.2481 17.1667C32.3939 17.1667 33.3314 18.1042 33.3314 19.25C33.3314 20.3959 32.3939 21.3334 31.2481 21.3334ZM35.4146 27.5834C34.2688 27.5834 33.3314 26.6459 33.3314 25.5C33.3314 24.3542 34.2688 23.4167 35.4146 23.4167C36.5603 23.4167 37.4978 24.3542 37.4978 25.5C37.4978 26.6459 36.5603 27.5834 35.4146 27.5834Z" fill="#2A7AE4"/>
</g>
</g>
</g>
<defs>
<clipPath id="clip0_55_1111">
<rect width="49.9972" height="50" fill="white" transform="translate(0 0.5)"/>
</clipPath>
</defs>
</svg>
